<svg width="70" height="70" viewBox="0 0 70 70" fill="none" xmlns="http://www.w3.org/2000/svg">
<path d="M26.25 15.75V26.25H15.75V15.75H26.25ZM31.5 10.5H10.5V31.5H31.5V10.5ZM26.25 43.75V54.25H15.75V43.75H26.25ZM31.5 38.5H10.5V59.5H31.5V38.5ZM54.25 15.75V26.25H43.75V15.75H54.25ZM59.5 10.5H38.5V31.5H59.5V10.5ZM38.5 38.5H43.75V43.75H38.5V38.5ZM43.75 43.75H49V49H43.75V43.75ZM49 38.5H54.25V43.75H49V38.5ZM38.5 49H43.75V54.25H38.5V49ZM43.75 54.25H49V59.5H43.75V54.25ZM49 49H54.25V54.25H49V49ZM54.25 43.75H59.5V49H54.25V43.75ZM54.25 54.25H59.5V59.5H54.25V54.25ZM66.5 17.5C64.575 17.5 63 15.925 63 14V7H56C54.075 7 52.5 5.425 52.5 3.5C52.5 1.575 54.075 0 56 0H66.5C68.425 0 70 1.575 70 3.5V14C70 15.925 68.425 17.5 66.5 17.5ZM70 66.5V56C70 54.075 68.425 52.5 66.5 52.5C64.575 52.5 63 54.075 63 56V63H56C54.075 63 52.5 64.575 52.5 66.5C52.5 68.425 54.075 70 56 70H66.5C68.425 70 70 68.425 70 66.5ZM3.5 70H14C15.925 70 17.5 68.425 17.5 66.5C17.5 64.575 15.925 63 14 63H7V56C7 54.075 5.425 52.5 3.5 52.5C1.575 52.5 0 54.075 0 56V66.5C0 68.425 1.575 70 3.5 70ZM0 3.5V14C0 15.925 1.575 17.5 3.5 17.5C5.425 17.5 7 15.925 7 14V7H14C15.925 7 17.5 5.425 17.5 3.5C17.5 1.575 15.925 0 14 0H3.5C1.575 0 0 1.575 0 3.5Z" fill="white"/>
</svg>
